<mxfile host="app.diagrams.net" modified="2024-04-08T13:54:46.625Z" agent="Mozilla/5.0 (Windows NT 10.0; Win64; x64) AppleWebKit/537.36 (KHTML, like Gecko) Chrome/123.0.0.0 Safari/537.36" etag="uNWw7xkgp0MZt2vbJ_Pd" version="24.2.2" type="device">
  <diagram name="Page-1" id="R9gqyCYi_6Jooy0xNKiw">
    <mxGraphModel dx="1050" dy="530" grid="1" gridSize="10" guides="1" tooltips="1" connect="1" arrows="1" fold="1" page="1" pageScale="1" pageWidth="1169" pageHeight="827" math="0" shadow="0">
      <root>
        <mxCell id="0" />
        <mxCell id="1" parent="0" />
        <mxCell id="V3FxSEqUrf2UmMYspg-W-1" value="DATA" style="rounded=0;whiteSpace=wrap;html=1;fillColor=#fff2cc;strokeColor=#d6b656;" vertex="1" parent="1">
          <mxGeometry x="120" y="200" width="120" height="40" as="geometry" />
        </mxCell>
        <mxCell id="V3FxSEqUrf2UmMYspg-W-2" value="" style="endArrow=classic;html=1;rounded=0;exitX=1;exitY=0.5;exitDx=0;exitDy=0;" edge="1" parent="1" source="V3FxSEqUrf2UmMYspg-W-1" target="V3FxSEqUrf2UmMYspg-W-3">
          <mxGeometry width="50" height="50" relative="1" as="geometry">
            <mxPoint x="510" y="300" as="sourcePoint" />
            <mxPoint x="320" y="220" as="targetPoint" />
          </mxGeometry>
        </mxCell>
        <mxCell id="V3FxSEqUrf2UmMYspg-W-3" value="FEATURE CONSTRUCTION (PREPROCESSING)" style="rounded=0;whiteSpace=wrap;html=1;fillColor=#ffe6cc;strokeColor=#d79b00;" vertex="1" parent="1">
          <mxGeometry x="280" y="190" width="120" height="60" as="geometry" />
        </mxCell>
        <mxCell id="V3FxSEqUrf2UmMYspg-W-18" value="" style="edgeStyle=orthogonalEdgeStyle;rounded=0;orthogonalLoop=1;jettySize=auto;html=1;" edge="1" parent="1" source="V3FxSEqUrf2UmMYspg-W-4" target="V3FxSEqUrf2UmMYspg-W-12">
          <mxGeometry relative="1" as="geometry" />
        </mxCell>
        <mxCell id="V3FxSEqUrf2UmMYspg-W-4" value="DEEP LEARNING ON FEATURES" style="rounded=0;whiteSpace=wrap;html=1;fillColor=#f8cecc;strokeColor=#b85450;" vertex="1" parent="1">
          <mxGeometry x="550" y="190" width="120" height="60" as="geometry" />
        </mxCell>
        <mxCell id="V3FxSEqUrf2UmMYspg-W-7" value="TIME SERIES CLUSTERING (EXTRA FEATURE)" style="rounded=0;whiteSpace=wrap;html=1;fillColor=#d5e8d4;strokeColor=#82b366;" vertex="1" parent="1">
          <mxGeometry x="400" y="340" width="120" height="60" as="geometry" />
        </mxCell>
        <mxCell id="V3FxSEqUrf2UmMYspg-W-8" value="" style="endArrow=classic;html=1;rounded=0;exitX=0.5;exitY=0;exitDx=0;exitDy=0;" edge="1" parent="1" source="V3FxSEqUrf2UmMYspg-W-7">
          <mxGeometry width="50" height="50" relative="1" as="geometry">
            <mxPoint x="510" y="300" as="sourcePoint" />
            <mxPoint x="460" y="220" as="targetPoint" />
          </mxGeometry>
        </mxCell>
        <mxCell id="V3FxSEqUrf2UmMYspg-W-9" value="" style="endArrow=classic;html=1;rounded=0;exitX=1;exitY=0.5;exitDx=0;exitDy=0;entryX=0;entryY=0.5;entryDx=0;entryDy=0;" edge="1" parent="1" source="V3FxSEqUrf2UmMYspg-W-3" target="V3FxSEqUrf2UmMYspg-W-4">
          <mxGeometry width="50" height="50" relative="1" as="geometry">
            <mxPoint x="510" y="300" as="sourcePoint" />
            <mxPoint x="560" y="250" as="targetPoint" />
          </mxGeometry>
        </mxCell>
        <mxCell id="V3FxSEqUrf2UmMYspg-W-12" value="PREDICITON OF&lt;div&gt;EV CHARGING TIME AND CONNECTION TIME&lt;/div&gt;" style="rounded=0;whiteSpace=wrap;html=1;fillColor=#f8cecc;strokeColor=#b85450;" vertex="1" parent="1">
          <mxGeometry x="720" y="190" width="150" height="60" as="geometry" />
        </mxCell>
        <mxCell id="V3FxSEqUrf2UmMYspg-W-21" style="edgeStyle=orthogonalEdgeStyle;rounded=0;orthogonalLoop=1;jettySize=auto;html=1;exitX=0;exitY=0.5;exitDx=0;exitDy=0;entryX=1;entryY=0.5;entryDx=0;entryDy=0;" edge="1" parent="1" source="V3FxSEqUrf2UmMYspg-W-13" target="V3FxSEqUrf2UmMYspg-W-19">
          <mxGeometry relative="1" as="geometry" />
        </mxCell>
        <mxCell id="V3FxSEqUrf2UmMYspg-W-22" style="edgeStyle=orthogonalEdgeStyle;rounded=0;orthogonalLoop=1;jettySize=auto;html=1;entryX=1;entryY=0.5;entryDx=0;entryDy=0;" edge="1" parent="1" source="V3FxSEqUrf2UmMYspg-W-13" target="V3FxSEqUrf2UmMYspg-W-17">
          <mxGeometry relative="1" as="geometry">
            <mxPoint x="780" y="450" as="targetPoint" />
          </mxGeometry>
        </mxCell>
        <mxCell id="V3FxSEqUrf2UmMYspg-W-13" value="EVALUATION OF PREDICTION" style="rounded=0;whiteSpace=wrap;html=1;fillColor=#f8cecc;strokeColor=#b85450;" vertex="1" parent="1">
          <mxGeometry x="740" y="295" width="110" height="50" as="geometry" />
        </mxCell>
        <mxCell id="V3FxSEqUrf2UmMYspg-W-16" value="" style="endArrow=classic;html=1;rounded=0;exitX=0.5;exitY=1;exitDx=0;exitDy=0;entryX=0.5;entryY=0;entryDx=0;entryDy=0;" edge="1" parent="1" source="V3FxSEqUrf2UmMYspg-W-12" target="V3FxSEqUrf2UmMYspg-W-13">
          <mxGeometry width="50" height="50" relative="1" as="geometry">
            <mxPoint x="510" y="300" as="sourcePoint" />
            <mxPoint x="560" y="250" as="targetPoint" />
          </mxGeometry>
        </mxCell>
        <mxCell id="V3FxSEqUrf2UmMYspg-W-23" style="edgeStyle=orthogonalEdgeStyle;rounded=0;orthogonalLoop=1;jettySize=auto;html=1;entryX=0.5;entryY=1;entryDx=0;entryDy=0;" edge="1" parent="1" source="V3FxSEqUrf2UmMYspg-W-17" target="V3FxSEqUrf2UmMYspg-W-7">
          <mxGeometry relative="1" as="geometry" />
        </mxCell>
        <mxCell id="V3FxSEqUrf2UmMYspg-W-17" value="ADJUSTING AND TUNING OF TIME SERIES CLUSTERING" style="rounded=0;whiteSpace=wrap;html=1;fillColor=#f8cecc;strokeColor=#b85450;" vertex="1" parent="1">
          <mxGeometry x="590" y="390" width="150" height="60" as="geometry" />
        </mxCell>
        <mxCell id="V3FxSEqUrf2UmMYspg-W-20" style="edgeStyle=orthogonalEdgeStyle;rounded=0;orthogonalLoop=1;jettySize=auto;html=1;exitX=0;exitY=0.5;exitDx=0;exitDy=0;entryX=0;entryY=0.5;entryDx=0;entryDy=0;" edge="1" parent="1" source="V3FxSEqUrf2UmMYspg-W-19" target="V3FxSEqUrf2UmMYspg-W-4">
          <mxGeometry relative="1" as="geometry" />
        </mxCell>
        <mxCell id="V3FxSEqUrf2UmMYspg-W-19" value="ADJUSTING AND TUNING OF DEEP LEARNING" style="rounded=0;whiteSpace=wrap;html=1;fillColor=#f8cecc;strokeColor=#b85450;" vertex="1" parent="1">
          <mxGeometry x="550" y="290" width="150" height="60" as="geometry" />
        </mxCell>
      </root>
    </mxGraphModel>
  </diagram>
</mxfile>
